# xmcd
#
# Track frame offsets:
#	150
#	15100
#	40410
#	53095
#	70065
#	84832
#	100882
#	118037
#	130280
#	143035
#
# Disc length: 2125 seconds
#
# Revision: 4
# Processed by: cddbd v1.4PL0 Copyright (c) Steve Scherf et al.
# Submitted via: EasyCDDAExtractor 4.6.9.1
#
DISCID=79084b0a
DTITLE=Ray Stevens - His All-Time Greatest Comic Hits
DYEAR=1900
DGENRE=Comedy
TTITLE0=The Streak
TTITLE1=Shriner's Convention
TTITLE2=Would Jesus Wear A Rolex?
TTITLE3=Mississippi Squirrel Revival
TTITLE4=Gitarzan
TTITLE5=It's Me Again, Margaret
TTITLE6=Ahab, The Arab
TTITLE7=In The Mood
TTITLE8=Freddie Feelgood
TTITLE9=Bridget The Midget
EXTD=
EXTT0=
EXTT1=
EXTT2=
EXTT3=
EXTT4=
EXTT5=
EXTT6=
EXTT7=
EXTT8=
EXTT9=
PLAYORDER=
